<svg width="24" height="24" viewBox="0 0 24 24" fill="none" xmlns="http://www.w3.org/2000/svg">
<path fill-rule="evenodd" clip-rule="evenodd" d="M12.7926 2.0994C12.7169 2.14902 10.5298 4.42135 7.9355 7.14519C2.89367 12.444 2.95999 12.3698 2.51979 13.3323C1.86163 14.7662 1.82856 16.3241 2.4202 17.8573C2.86999 19.0182 3.77897 20.1743 4.8204 20.9086C5.37428 21.2955 5.67244 21.4544 6.26428 21.6676C8.00632 22.3027 9.75326 22.0248 11.3108 20.8589C11.68 20.586 20.8737 10.9705 21.1435 10.5736C21.4369 10.1518 21.6926 9.62584 21.8347 9.14952C22.0241 8.5393 22.0524 7.5766 21.9104 6.94649C21.5933 5.55238 20.6512 4.32189 19.3635 3.62719C18.7292 3.28476 18.2131 3.14103 17.5031 3.11108C16.8212 3.08135 16.4143 3.15087 15.8035 3.39384C14.9986 3.7213 15.0035 3.71638 10.6008 8.32071C8.35203 10.6728 6.41591 12.7319 6.29754 12.8957C5.23224 14.3741 5.37918 16.205 6.67142 17.4603C7.23469 18.0061 8.1153 18.3783 8.83959 18.3783C9.39346 18.3783 10.1177 18.1351 10.6243 17.7779C10.8704 17.6042 16.3384 11.9232 16.5608 11.6107C16.6698 11.4569 16.6982 11.3626 16.6982 11.1742C16.6982 10.6234 16.2816 10.2662 15.7655 10.3655C15.6045 10.3952 15.24 10.7575 12.6741 13.4416C9.34612 16.9245 9.5353 16.7658 8.80163 16.7311C8.27612 16.7112 7.94958 16.5525 7.58489 16.1357C7.24407 15.7537 7.12101 15.4063 7.14469 14.9052C7.17305 14.1709 6.94591 14.4438 11.5333 9.63098C13.7867 7.26433 15.7418 5.24503 15.8745 5.1507C16.0071 5.05146 16.2626 4.91757 16.4426 4.85297C17.9435 4.28232 19.7945 5.34919 20.372 7.11546C20.5047 7.52227 20.4951 8.37568 20.3531 8.77265C20.121 9.43249 20.121 9.43741 15.3965 14.3991C12.8969 17.0287 10.7145 19.2961 10.5441 19.4449C9.31305 20.5017 7.81714 20.6902 6.35897 19.9758C5.35061 19.4796 4.4653 18.5817 3.97305 17.5595C3.5802 16.7309 3.43816 15.694 3.60856 14.8753C3.69367 14.4485 3.95897 13.8135 4.2004 13.4315C4.28571 13.3025 6.48224 10.9607 9.08122 8.23173C11.9406 5.23005 13.8247 3.21075 13.858 3.12135C13.9337 2.9081 13.9243 2.58556 13.839 2.40697C13.6543 2.03973 13.1194 1.88102 12.7926 2.0994Z" fill="#767F88"/>
</svg>
