<svg width="101" height="100" viewBox="0 0 101 100" fill="none" xmlns="http://www.w3.org/2000/svg">
<g clip-path="url(#clip0_1_1155)">
<mask id="mask0_1_1155" style="mask-type:alpha" maskUnits="userSpaceOnUse" x="0" y="0" width="101" height="100">
<path d="M50.5 100C78.1142 100 100.5 77.6142 100.5 50C100.5 22.3858 78.1142 0 50.5 0C22.8858 0 0.5 22.3858 0.5 50C0.5 77.6142 22.8858 100 50.5 100Z" fill="white"/>
</mask>
<g mask="url(#mask0_1_1155)">
<path d="M50.5 100C78.1142 100 100.5 77.6142 100.5 50C100.5 22.3858 78.1142 0 50.5 0C22.8858 0 0.5 22.3858 0.5 50C0.5 77.6142 22.8858 100 50.5 100Z" fill="#F4F4F9"/>
<path fill-rule="evenodd" clip-rule="evenodd" d="M8.83333 100V85.4167C15.7778 78.4722 23.4167 74.3056 31.75 72.9167C37.3055 65.9722 43.5555 62.5 50.5 62.5C57.4444 62.5 63.6944 65.9722 69.25 72.9167C77.5833 74.3056 85.2222 78.4722 92.1667 85.4167V100H8.83333Z" fill="#C7CDD6"/>
<path fill-rule="evenodd" clip-rule="evenodd" d="M40.0833 56.25H60.9167V71.2996C60.9166 72.1361 60.4163 72.8914 59.6461 73.2177C58.3576 73.7637 56.6977 75.0522 54.6667 77.0833C51.8889 79.8611 50.5 82.6389 50.5 85.4167C50.5 82.6389 49.1111 79.8611 46.3333 77.0833C44.3022 75.0522 42.6424 73.7637 41.3539 73.2177C40.5837 72.8914 40.0833 72.136 40.0833 71.2995V56.25Z" fill="#DDE0E7"/>
<path opacity="0.5" fill-rule="evenodd" clip-rule="evenodd" d="M40.0833 62.5H60.9167V64.5833C58.1389 68.75 54.6667 70.8333 50.5 70.8333C46.3333 70.8333 42.8611 68.75 40.0833 64.5833V62.5Z" fill="#C7CDD6"/>
<path fill-rule="evenodd" clip-rule="evenodd" d="M50.5 18.75C59.334 18.75 66.5628 32.1824 67.1307 42.4724C68.396 43.5449 69.25 45.5812 69.25 47.9167C69.25 50.9781 67.7825 53.5255 65.8451 54.0624C63.7906 61.7948 59.1325 68.75 50.5 68.75C41.8675 68.75 37.2094 61.7948 35.1533 54.06C33.2175 53.5255 31.75 50.9781 31.75 47.9167C31.75 45.5812 32.604 43.5449 33.8691 42.4721C34.4372 32.1824 41.666 18.75 50.5 18.75Z" fill="#DDE0E7"/>
<path fill-rule="evenodd" clip-rule="evenodd" d="M35.9167 50C33.1389 44.4444 31.75 39.5833 31.75 35.4166C31.75 29.1666 33.8868 25 38.1603 22.9166C40.297 20.1388 42.4338 18.4027 44.5705 17.7083C47.7756 16.6666 48.844 16.6666 50.9808 16.6666C53.1175 16.6666 58.4594 17.7083 60.5962 21.875C67.0064 22.5694 69.8554 25.6944 69.1432 31.25C68.4309 36.8055 67.0776 43.0555 65.0833 50C65.6531 43.0555 65.5819 39.2361 64.8697 38.5416C63.8013 37.5 59.8483 32.2916 60.9167 26.0416C57.1417 27.4305 53.1175 28.125 48.844 28.125C40.297 28.125 35.9879 35.4166 35.9167 50Z" fill="#C7CDD6"/>
</g>
</g>
<defs>
<clipPath id="clip0_1_1155">
<rect width="100" height="100" fill="white" transform="translate(0.5)"/>
</clipPath>
</defs>
</svg>
