<svg width="32" height="32" viewBox="0 0 32 32" fill="none" xmlns="http://www.w3.org/2000/svg">
<g clip-path="url(#clip0_143_1080)">
<path fill-rule="evenodd" clip-rule="evenodd" d="M26.1536 2.66675C27.9097 2.66675 29.3333 4.0898 29.3333 5.84622V9.55026L27.088 11.7949L25.6133 11.7947L25.5704 12.0485C25.2943 13.3484 24.224 14.3544 22.8915 14.5351L22.8693 14.5374L22.8695 15.9101L21.8467 17.1054L21.926 17.4211C22.6346 20.5345 21.7773 23.8283 19.574 26.2061L19.3138 26.4764C15.1944 30.5954 8.41835 30.2135 4.76615 25.6368C1.99694 22.1639 1.96342 17.1265 4.6875 13.6234C7.04622 10.5871 10.8753 9.25153 14.5135 10.0574L14.7907 10.1241L22.4677 2.66675H26.1536ZM26.1536 5.33341H23.5493L15.5024 13.1523L14.7265 12.8842C11.8603 11.8936 8.68499 12.8243 6.79299 15.2599C4.8251 17.7905 4.84955 21.4641 6.85082 23.9738C9.51083 27.3072 14.434 27.5847 17.4284 24.5906C19.3617 22.6578 20.0013 19.7991 19.1016 17.2353L18.8474 16.5109L20.2027 14.9241L20.2034 11.8974H22.46C22.7436 11.8974 22.9731 11.6681 22.9731 11.3841L22.974 9.12823L25.9827 9.12808L26.6667 8.44408V5.84622C26.6667 5.59823 26.491 5.39161 26.2571 5.34383L26.1536 5.33341ZM13.8856 18.1145C14.927 19.156 14.927 20.8443 13.8856 21.8857C12.8443 22.9271 11.1563 22.9271 10.1132 21.8854C9.07325 20.8439 9.07325 19.1563 10.114 18.1141C11.1563 17.0731 12.8443 17.0731 13.8856 18.1145Z" fill="#767F88"/>
</g>
<defs>
<clipPath id="clip0_143_1080">
<rect width="32" height="32" fill="white"/>
</clipPath>
</defs>
</svg>
