<svg width="101" height="80" viewBox="0 0 101 80" fill="none" xmlns="http://www.w3.org/2000/svg">
<g clip-path="url(#clip0_423_10617)">
<path fill-rule="evenodd" clip-rule="evenodd" d="M57.9606 19.5199C58.3686 19.4479 58.767 19.5482 59.0815 19.7683C59.3959 19.9885 59.6264 20.3287 59.6983 20.7366L66.7034 60.4644C66.7753 60.8723 66.6751 61.2708 66.4549 61.5853C66.2347 61.8997 65.8946 62.1302 65.4867 62.2021L10.0812 71.9716C9.67332 72.0435 9.27487 71.9433 8.96041 71.7231C8.64595 71.5029 8.41549 71.1628 8.34356 70.7548L1.33848 31.027C1.26655 30.6191 1.36677 30.2206 1.58696 29.9062C1.80715 29.5917 2.14729 29.3613 2.55521 29.2893L57.9606 19.5199Z" fill="#F4F4F9" stroke="#283844"/>
<path opacity="0.5" d="M64.0204 56.8286C64.2741 56.7839 64.5169 56.9386 64.589 57.1803L64.6025 57.2376L65.04 59.7187C65.1322 60.2419 64.8043 60.7417 64.2992 60.8698L64.2259 60.8855L61.7532 61.3215C61.4801 61.3697 61.2195 61.1866 61.1712 60.9125C61.1263 60.658 61.2802 60.4146 61.5211 60.3426L61.5782 60.3291L64.0509 59.8931L63.6134 57.412C63.5651 57.138 63.7473 56.8768 64.0204 56.8286ZM9.62118 66.4207C9.89431 66.3725 10.1549 66.5556 10.2032 66.8297L10.6407 69.3108L13.1134 68.8748L13.1717 68.8679C13.4227 68.8532 13.6506 69.0293 13.6954 69.2838C13.7437 69.5578 13.5615 69.819 13.2884 69.8672L10.8157 70.3032L10.7414 70.3135C10.2229 70.3658 9.74387 70.0083 9.65162 69.4852L9.21414 67.0041L9.20726 66.9456C9.19231 66.6938 9.36756 66.4654 9.62118 66.4207ZM6.28868 30.1699C6.5618 30.1217 6.82239 30.3048 6.87071 30.5789C6.91558 30.8334 6.76165 31.0768 6.52075 31.1488L6.46367 31.1623L3.99097 31.5983L4.42846 34.0794C4.47678 34.3534 4.29454 34.6146 4.02141 34.6628C3.7678 34.7075 3.52499 34.5528 3.45291 34.3111L3.43938 34.2538L3.0019 31.7727C2.90964 31.2495 3.23755 30.7497 3.74265 30.6216L3.81598 30.6059L6.28868 30.1699ZM57.2262 21.1882L57.3005 21.1779C57.8189 21.1256 58.298 21.4831 58.3902 22.0062L58.8277 24.4873L58.8346 24.5458C58.8496 24.7976 58.6743 25.026 58.4207 25.0707C58.1476 25.1189 57.887 24.9358 57.8386 24.6617L57.4012 22.1806L54.9285 22.6167L54.8702 22.6235C54.6192 22.6382 54.3913 22.4621 54.3464 22.2076C54.2981 21.9336 54.4804 21.6724 54.7535 21.6242L57.2262 21.1882Z" fill="#9CA8B4"/>
<path fill-rule="evenodd" clip-rule="evenodd" d="M98.4378 37.133C98.8379 37.2402 99.1566 37.4995 99.3486 37.8319C99.5405 38.1644 99.6056 38.57 99.4984 38.9701L89.0575 77.9362C88.9503 78.3363 88.6911 78.6551 88.3586 78.8471C88.0261 79.039 87.6205 79.1041 87.2204 78.9969L32.8772 64.4357C32.4771 64.3285 32.1584 64.0693 31.9664 63.7368C31.7745 63.4044 31.7094 62.9987 31.8166 62.5986L42.2575 23.6325C42.3647 23.2324 42.624 22.9136 42.9564 22.7217C43.2889 22.5297 43.6945 22.4646 44.0946 22.5718L98.4378 37.133Z" fill="#F4F4F9" stroke="#283844"/>
<path opacity="0.5" d="M88.1625 73.5074C88.4113 73.574 88.5659 73.8169 88.5291 74.0664L88.5171 74.1241L87.8651 76.5576C87.7276 77.0707 87.2192 77.3851 86.7073 77.2878L86.6342 77.271L84.2089 76.6212C83.941 76.5494 83.7822 76.2733 83.8542 76.0045C83.9211 75.7549 84.1635 75.5994 84.4122 75.6359L84.4697 75.6478L86.895 76.2976L87.547 73.8641C87.6191 73.5953 87.8946 73.4356 88.1625 73.5074ZM34.8062 59.2106C35.0741 59.2824 35.2329 59.5585 35.1609 59.8273L34.5088 62.2608L36.9341 62.9107L36.9898 62.9291C37.2235 63.0218 37.3556 63.2777 37.2888 63.5273C37.2167 63.7961 36.9412 63.9558 36.6733 63.8841L34.248 63.2342L34.1763 63.2121C33.6843 63.0405 33.4012 62.514 33.5387 62.0009L34.1908 59.5674L34.2092 59.5115C34.3021 59.2769 34.5575 59.144 34.8062 59.2106ZM47.1062 24.9479C47.3741 25.0197 47.5329 25.2958 47.4609 25.5646C47.394 25.8142 47.1516 25.9697 46.9028 25.9332L46.8454 25.9213L44.4201 25.2714L43.768 27.7049C43.696 27.9737 43.4205 28.1335 43.1526 28.0617C42.9038 27.995 42.7492 27.7522 42.786 27.5026L42.7979 27.445L43.45 25.0115C43.5875 24.4983 44.0959 24.184 44.6078 24.2813L44.6809 24.298L47.1062 24.9479ZM97.0671 38.3349L97.1388 38.3569C97.6308 38.5286 97.9139 39.055 97.7764 39.5682L97.1243 42.0017L97.1058 42.0576C97.013 42.2921 96.7576 42.4251 96.5088 42.3584C96.241 42.2867 96.0822 42.0106 96.1542 41.7418L96.8063 39.3083L94.381 38.6584L94.3253 38.64C94.0916 38.5472 93.9594 38.2913 94.0263 38.0417C94.0983 37.7729 94.3739 37.6132 94.6418 37.685L97.0671 38.3349Z" fill="#9CA8B4"/>
<path d="M78.9978 15C79.2741 15 79.5234 15.1114 79.7049 15.2929C79.8864 15.4744 79.9978 15.7237 79.9978 16V56.5C79.9978 56.7763 79.8864 57.0256 79.7049 57.2071C79.5234 57.3886 79.2741 57.5 78.9978 57.5H22.4995C22.2232 57.5 21.9739 57.3886 21.7923 57.2071C21.6108 57.0256 21.4995 56.7763 21.4995 56.5V16C21.4995 15.7237 21.6108 15.4744 21.7923 15.2929C21.9739 15.1114 22.2232 15 22.4995 15H78.9978Z" fill="white" stroke="#283844"/>
<path opacity="0.5" d="M77.9978 52.5C78.2543 52.5 78.4656 52.693 78.4978 53V55.5C78.4978 56.0272 78.0899 56.4591 77.4979 56.5H74.9979C74.7218 56.5 74.4979 56.2761 74.4979 56C74.4979 55.7436 74.691 55.5322 74.9979 55.5H77.4979V53C77.4979 52.7239 77.7217 52.5 77.9978 52.5ZM22.9994 52.5C23.2755 52.5 23.4994 52.7239 23.4994 53V55.5H25.9993C26.3063 55.5322 26.4993 55.7436 26.4993 56C26.4993 56.2761 26.2754 56.5 25.9993 56.5H23.4994C22.9073 56.4591 22.4994 56.0272 22.4994 55.5V53C22.5316 52.693 22.743 52.5 22.9994 52.5ZM25.9993 16C26.2754 16 26.4993 16.2239 26.4993 16.5C26.4993 16.7564 26.3063 16.9678 25.9993 17H23.4994V19.5C23.4994 19.7761 23.2755 20 22.9994 20C22.743 20 22.5316 19.807 22.4994 19.5V17C22.4994 16.4728 22.9073 16.0409 23.4994 16H25.9993ZM77.4979 16C78.0899 16.0409 78.4978 16.4728 78.4978 17V19.5C78.4656 19.807 78.2543 20 77.9978 20C77.7217 20 77.4979 19.7761 77.4979 19.5V17H74.9979C74.691 16.9678 74.4979 16.7564 74.4979 16.5C74.4979 16.2239 74.7218 16 74.9979 16H77.4979Z" fill="#9CA8B4"/>
<path opacity="0.4" d="M61.4983 48C62.0506 48 62.4983 48.4477 62.4983 49V50C62.4983 50.5523 62.0506 51 61.4983 51H27.4993C26.947 51 26.4993 50.5523 26.4993 50V49C26.4993 48.4477 26.947 48 27.4993 48H61.4983ZM73.4979 42C74.0502 42 74.4979 42.4477 74.4979 43V44C74.4979 44.5523 74.0502 45 73.4979 45H27.4993C26.947 45 26.4993 44.5523 26.4993 44V43C26.4993 42.4477 26.947 42 27.4993 42H73.4979ZM39.4989 21C40.6034 21 41.4989 21.8954 41.4989 23V34C41.4989 35.1046 40.6034 36 39.4989 36H28.4993C27.3947 36 26.4993 35.1046 26.4993 34V23C26.4993 21.8954 27.3947 21 28.4993 21H39.4989ZM62.4982 33C63.0505 33 63.4982 33.4477 63.4982 34V35C63.4982 35.5523 63.0505 36 62.4982 36H46.4987C45.9465 36 45.4987 35.5523 45.4987 35V34C45.4987 33.4477 45.9465 33 46.4987 33H62.4982ZM66.4981 27C67.0504 27 67.4981 27.4477 67.4981 28V29C67.4981 29.5523 67.0504 30 66.4981 30H46.4987C45.9465 30 45.4987 29.5523 45.4987 29V28C45.4987 27.4477 45.9465 27 46.4987 27H66.4981ZM70.498 21C71.0503 21 71.498 21.4477 71.498 22V23C71.498 23.5523 71.0503 24 70.498 24H46.4987C45.9465 24 45.4987 23.5523 45.4987 23V22C45.4987 21.4477 45.9465 21 46.4987 21H70.498Z" fill="#9CA8B4"/>
<g filter="url(#filter0_d_423_10617)">
<path d="M80.5 26C87.1274 26 92.5 20.6274 92.5 14C92.5 7.37258 87.1274 2 80.5 2C73.8726 2 68.5 7.37258 68.5 14C68.5 20.6274 73.8726 26 80.5 26Z" fill="#2D4B7F"/>
<path d="M92.25 14C92.25 20.4893 86.9893 25.75 80.5 25.75C74.0107 25.75 68.75 20.4893 68.75 14C68.75 7.51065 74.0107 2.25 80.5 2.25C86.9893 2.25 92.25 7.51065 92.25 14Z" stroke="black" stroke-opacity="0.05" stroke-width="0.5"/>
</g>
<path d="M80.4978 10C80.7739 10 80.9978 10.2239 80.9978 10.5L80.9974 13.4995L83.9977 13.5C84.2738 13.5 84.4977 13.7239 84.4977 14C84.4977 14.2761 84.2738 14.5 83.9977 14.5L80.9974 14.4995L80.9978 17.5C80.9978 17.7761 80.7739 18 80.4978 18C80.2217 18 79.9978 17.7761 79.9978 17.5L79.9974 14.4995L76.9979 14.5C76.7218 14.5 76.4979 14.2761 76.4979 14C76.4979 13.7239 76.7218 13.5 76.9979 13.5L79.9974 13.4995L79.9978 10.5C79.9978 10.2239 80.2217 10 80.4978 10Z" fill="white"/>
</g>
<defs>
<filter id="filter0_d_423_10617" x="64.5" y="0" width="32" height="32" filterUnits="userSpaceOnUse" color-interpolation-filters="sRGB">
<feFlood flood-opacity="0" result="BackgroundImageFix"/>
<feColorMatrix in="SourceAlpha" type="matrix" values="0 0 0 0 0 0 0 0 0 0 0 0 0 0 0 0 0 0 127 0" result="hardAlpha"/>
<feOffset dy="2"/>
<feGaussianBlur stdDeviation="2"/>
<feComposite in2="hardAlpha" operator="out"/>
<feColorMatrix type="matrix" values="0 0 0 0 0 0 0 0 0 0 0 0 0 0 0 0 0 0 0.2 0"/>
<feBlend mode="normal" in2="BackgroundImageFix" result="effect1_dropShadow_423_10617"/>
<feBlend mode="normal" in="SourceGraphic" in2="effect1_dropShadow_423_10617" result="shape"/>
</filter>
<clipPath id="clip0_423_10617">
<rect width="100" height="80" fill="white" transform="translate(0.5)"/>
</clipPath>
</defs>
</svg>
