<svg width="32" height="32" viewBox="0 0 32 32" fill="none" xmlns="http://www.w3.org/2000/svg">
<g clip-path="url(#clip0_143_1070)">
<path d="M25.3281 2.66675C27.458 2.66675 29.1997 4.33177 29.3213 6.43169L29.3281 6.66675V25.3334C29.3281 27.4629 27.6623 29.2049 25.5631 29.3266L25.3281 29.3334H18.2601V26.6667H25.3281C26.0112 26.6667 26.5755 26.1514 26.6525 25.4888L26.6615 25.3334V6.66675C26.6615 5.98296 26.1467 5.4194 25.4836 5.34239L25.3281 5.33341H6.6615C5.9779 5.33341 5.41418 5.84812 5.33714 6.51125L5.32817 6.66675V12.6227H2.6615V6.66675C2.6615 4.53629 4.3271 2.79519 6.42651 2.67353L6.6615 2.66675H25.3281ZM6.80553 27.1051L4.96951 28.9411C4.44881 29.4618 3.60459 29.4618 3.08389 28.9411C2.60325 28.4605 2.56627 27.7042 2.97297 27.1811L3.08389 27.0555L4.90594 25.2335C3.41954 22.9114 3.69069 19.7891 5.71962 17.7587C8.06294 15.4154 11.8619 15.4154 14.2052 17.7587C16.5487 20.1021 16.5487 23.901 14.2049 26.2447C12.1967 28.2514 9.11974 28.5383 6.80553 27.1051ZM7.64565 24.3985C8.95067 25.6594 11.0315 25.6459 12.3196 24.3587C13.6216 23.0567 13.6216 20.9463 12.3196 19.6443C11.0176 18.3423 8.90721 18.3423 7.60559 19.6439C6.30449 20.9461 6.30449 23.057 7.6049 24.3583C7.61758 24.3705 7.62693 24.3797 7.63618 24.3889C7.63935 24.3921 7.6425 24.3953 7.64565 24.3985ZM22.6615 11.9997V9.33301H9.32814V11.9997H22.6615ZM22.6985 16.0367V18.7034H18.6985V16.0367H22.6985Z" fill="#2D4B7F"/>
</g>
<defs>
<clipPath id="clip0_143_1070">
<rect width="32" height="32" fill="white"/>
</clipPath>
</defs>
</svg>
