<svg width="28" height="28" viewBox="0 0 28 28" fill="none" xmlns="http://www.w3.org/2000/svg">
<path fill-rule="evenodd" clip-rule="evenodd" d="M14 0.666626C6.64002 0.666626 0.666687 6.63996 0.666687 14C0.666687 21.36 6.64002 27.3333 14 27.3333C21.36 27.3333 27.3334 21.36 27.3334 14C27.3334 6.63996 21.36 0.666626 14 0.666626ZM12.6667 7.33329V12.6666H7.33335V15.3333H12.6667V20.6666H15.3334V15.3333H20.6667V12.6666H15.3334V7.33329H12.6667ZM3.33335 14C3.33335 19.88 8.12002 24.6666 14 24.6666C19.88 24.6666 24.6667 19.88 24.6667 14C24.6667 8.11996 19.88 3.33329 14 3.33329C8.12002 3.33329 3.33335 8.11996 3.33335 14Z" fill="#767F88"/>
</svg>
